HIERARCHY
ROOT Hips
{
	OFFSET 0.000000 0.000000 0.000000
	CHANNELS 6 Xposition Yposition Zposition Zrotation Yrotation Xrotation 
	JOINT LHipJoint
	{
		OFFSET 0.000000 0.000000 0.000000
		CHANNELS 3 Zrotation Yrotation Xrotation
		JOINT LeftUpLeg
		{
			OFFSET 1.363060 -1.794630 0.839290
			CHANNELS 3 Zrotation Yrotation Xrotation
			JOINT LeftLeg
			{
				OFFSET 2.448110 -6.726130 0.000000
				CHANNELS 3 Zrotation Yrotation Xrotation
				JOINT LeftFoot
				{
					OFFSET 2.562200 -7.039590 0.000000
					CHANNELS 3 Zrotation Yrotation Xrotation
					JOINT LeftToeBase
					{
						OFFSET 0.157640 -0.433110 2.322550
						CHANNELS 3 Zrotation Yrotation Xrotation
						End Site
						{
							OFFSET 0.000000 0.000000 0.000000
						}
					}
				}
			}
		}
	}
	JOINT RHipJoint
	{
		OFFSET 0.000000 0.000000 0.000000
		CHANNELS 3 Zrotation Yrotation Xrotation
		JOINT RightUpLeg
		{
			OFFSET -1.305520 -1.794630 0.839290
			CHANNELS 3 Zrotation Yrotation Xrotation
			JOINT RightLeg
			{
				OFFSET -2.542530 -6.985550 0.000000
				CHANNELS 3 Zrotation Yrotation Xrotation
				JOINT RightFoot
				{
					OFFSET -2.568260 -7.056230 0.000000
					CHANNELS 3 Zrotation Yrotation Xrotation
					JOINT RightToeBase
					{
						OFFSET -0.164730 -0.452590 2.363150
						CHANNELS 3 Zrotation Yrotation Xrotation
						End Site
						{
							OFFSET 0.000000 0.000000 0.000000
						}
					}
				}
			}
		}
	}
	JOINT LowerBack
	{
		OFFSET 0.000000 0.000000 0.000000
		CHANNELS 3 Zrotation Yrotation Xrotation
		JOINT Spine
		{
			OFFSET 0.028270 2.035590 -0.193380
			CHANNELS 3 Zrotation Yrotation Xrotation
			JOINT Spine1
			{
				OFFSET 0.056720 2.048850 -0.042750
				CHANNELS 3 Zrotation Yrotation Xrotation
				JOINT Neck
				{
					OFFSET 0.000000 0.000000 0.000000
					CHANNELS 3 Zrotation Yrotation Xrotation
					JOINT Neck1
					{
						OFFSET -0.054170 1.746240 0.172020
						CHANNELS 3 Zrotation Yrotation Xrotation
						JOINT Head
						{
							OFFSET 0.104070 1.761360 -0.123970
							CHANNELS 3 Zrotation Yrotation Xrotation
							End Site
							{
								OFFSET 0.000000 0.000000 0.000000
							}
						}
					}
				}
				JOINT LeftShoulder
				{
					OFFSET 0.000000 0.000000 0.000000
					CHANNELS 3 Zrotation Yrotation Xrotation
					JOINT LeftArm
					{
						OFFSET 3.362410 1.200890 -0.311210
						CHANNELS 3 Zrotation Yrotation Xrotation
						JOINT LeftForeArm
						{
							OFFSET 4.983000 -0.000000 -0.000000
							CHANNELS 3 Zrotation Yrotation Xrotation
							JOINT LeftHand
							{
								OFFSET 3.483560 -0.000000 -0.000000
								CHANNELS 3 Zrotation Yrotation Xrotation
								JOINT LeftFingerBase
								{
									OFFSET 0.000000 0.000000 0.000000
									CHANNELS 3 Zrotation Yrotation Xrotation
									JOINT LeftHandIndex1
									{
										OFFSET 0.715260 -0.000000 -0.000000
										CHANNELS 3 Zrotation Yrotation Xrotation
										End Site
										{
											OFFSET 0.000000 0.000000 0.000000
										}
									}
								}
								JOINT LThumb
								{
									OFFSET 0.000000 0.000000 0.000000
									CHANNELS 3 Zrotation Yrotation Xrotation
									End Site
									{
										OFFSET 0.000000 0.000000 0.000000
									}
								}
							}
						}
					}
				}
				JOINT RightShoulder
				{
					OFFSET 0.000000 0.000000 0.000000
					CHANNELS 3 Zrotation Yrotation Xrotation
					JOINT RightArm
					{
						OFFSET -3.136600 1.374050 -0.404650
						CHANNELS 3 Zrotation Yrotation Xrotation
						JOINT RightForeArm
						{
							OFFSET -5.241900 -0.000000 -0.000000
							CHANNELS 3 Zrotation Yrotation Xrotation
							JOINT RightHand
							{
								OFFSET -3.444170 -0.000000 -0.000000
								CHANNELS 3 Zrotation Yrotation Xrotation
								JOINT RightFingerBase
								{
									OFFSET 0.000000 0.000000 0.000000
									CHANNELS 3 Zrotation Yrotation Xrotation
									JOINT RightHandIndex1
									{
										OFFSET -0.622530 -0.000000 -0.000000
										CHANNELS 3 Zrotation Yrotation Xrotation
										End Site
										{
											OFFSET 0.000000 0.000000 0.000000
										}
									}
								}
								JOINT RThumb
								{
									OFFSET 0.000000 0.000000 0.000000
									CHANNELS 3 Zrotation Yrotation Xrotation
									End Site
									{
										OFFSET 0.000000 0.000000 0.000000
									}
								}
							}
						}
					}
				}
			}
		}
	}
}
MOTION
Frames: 12
Frame Time: 0.008333
20.985775 18.086380 5.573290 155.937406 -87.943295 -141.212786 0.868762 0.956709 -0.421890 -24.787530 3.118358 -18.571636 0.925198 4.256650 12.044792 0.175841 -2.712605 -4.984384 0.022700 -0.971800 -2.671300 -0.562279 -0.519745 -0.205470 13.912354 7.809310 -27.961805 -3.171579 -8.318575 24.980474 0.562644 -5.861697 -4.385198 -0.741400 5.500300 -15.341300 0.983805 0.739733 10.191824 2.132640 1.040398 2.601341 1.759534 0.286031 -0.602758 -11.087533 -2.235601 -20.036742 1.693083 -0.337128 23.593112 2.712500 -1.691900 14.403800 -0.648393 3.474499 -2.055159 -83.351028 -56.410041 59.540154 29.240412 -43.415182 -11.730329 0.583271 -0.962081 32.290241 49.163953 34.777580 33.535800 -7.125000 0.000000 0.000000 30.676200 76.148900 22.870900 -1.501611 -3.985708 -1.232859 72.983738 45.901999 40.257830 -53.710497 58.042906 -29.055318 0.973652 -0.220431 4.824887 -49.393784 37.453588 -35.887600 7.125000 0.000000 0.000000 -8.297800 19.139100 -10.648100 
20.983441 18.081226 5.561135 153.788382 -87.942675 -139.064538 0.848405 0.948398 -0.422272 -24.768671 3.025286 -18.365023 0.905864 4.159112 11.770926 0.172965 -2.699135 -4.917252 0.023700 -0.992900 -2.729100 -0.575275 -0.523023 -0.205948 13.883206 7.927117 -27.923430 -3.185837 -8.362306 25.119267 0.577771 -5.987830 -4.766690 -0.734500 5.475200 -15.269100 0.941147 0.681333 10.269771 2.210223 0.952629 2.678552 1.877650 0.241305 -0.505858 -11.194204 -2.186733 -20.114306 1.853078 -0.238410 23.531203 2.808500 -1.636800 14.378200 -0.659756 3.529415 -1.893288 -82.139808 -56.322668 58.952844 29.915758 -44.019243 -12.232265 0.582036 -0.955449 32.647251 49.417564 34.810374 33.789100 -7.125000 0.000000 0.000000 31.427900 76.246200 23.514300 -1.488450 -4.013130 -1.308448 73.330433 45.354284 40.245340 -53.776511 58.039635 -29.110895 0.975407 -0.270505 7.046426 -47.941180 37.887748 -34.800000 7.125000 0.000000 0.000000 -7.421000 18.866500 -9.485300 
20.979551 18.081032 5.550342 158.283043 -87.886050 -143.506263 0.897187 0.960850 -0.429619 -24.687042 3.169739 -18.452469 0.908359 4.164481 11.789052 0.169649 -2.753808 -4.783359 0.114800 -2.184100 -6.014700 -0.530812 -0.514954 -0.199836 14.058289 8.032153 -27.957206 -3.194438 -8.379844 25.172833 0.597212 -6.116318 -4.803922 -0.875900 5.966800 -16.688100 1.234075 0.773072 10.351614 2.238062 1.092441 2.720789 1.752068 0.315138 -0.471815 -11.312072 -2.312408 -20.208496 2.015290 -0.383023 23.573215 2.866300 -1.687000 14.423300 -0.672166 3.585628 -1.782186 -81.251176 -56.172053 59.006105 30.710782 -44.663212 -12.821959 0.584847 -0.940311 33.119265 49.588029 35.272113 34.228300 -7.125000 0.000000 0.000000 32.311800 76.764800 24.536100 -1.486215 -4.033956 -1.337693 73.181523 44.762731 40.129037 -54.076736 58.103407 -29.383105 0.978719 -0.266494 8.303777 -46.838561 36.643179 -33.015800 7.125000 0.000000 0.000000 -7.309600 17.001500 -9.189000 
20.974592 18.085213 5.535950 164.151518 -87.843903 -149.279568 0.958499 0.965958 -0.440917 -24.533375 3.270088 -18.706678 0.927130 4.256673 12.055486 0.172928 -2.768009 -4.871512 0.263500 -3.302500 -9.122100 -0.475886 -0.516431 -0.186562 14.310028 7.956814 -28.101446 -3.193512 -8.367434 25.126228 0.576571 -5.951405 -4.577025 -0.919500 6.109300 -17.102000 1.514679 0.882582 10.343402 2.277203 1.250604 2.804869 1.660034 0.393768 -0.339437 -11.283921 -2.350116 -20.426038 2.119996 -0.433927 23.691931 2.893400 -1.692600 14.516400 -0.679438 3.628506 -1.701690 -80.563826 -56.104715 59.075718 31.399584 -45.212542 -13.344227 0.587030 -0.934359 33.694761 49.433634 35.667990 34.313700 -7.125000 0.000000 0.000000 32.168200 77.122400 24.650800 -1.482514 -4.067259 -1.344613 72.758608 44.186755 40.318784 -54.929519 58.352346 -30.085543 0.970006 -0.252825 9.264482 -47.178374 35.058986 -32.300400 7.125000 0.000000 0.000000 -8.012000 15.450600 -9.939200 
20.974592 18.077240 5.517280 166.091960 -87.893492 -151.166581 0.980187 0.961777 -0.444296 -24.378912 3.166373 -18.860148 0.943076 4.335082 12.279910 0.173874 -2.707520 -4.951408 0.291300 -3.470700 -9.592100 -0.457297 -0.521948 -0.179621 14.448722 7.896249 -28.179525 -3.190589 -8.357423 25.089997 0.558418 -5.820075 -4.572680 -0.831000 5.815600 -16.250300 1.617012 0.898614 10.447462 2.306977 1.271527 2.893106 1.650010 0.405693 -0.247323 -10.967230 -2.294443 -20.520154 2.011726 -0.445220 23.546741 2.789600 -1.665100 14.465000 -0.684803 3.665758 -1.569806 -79.495076 -56.082250 58.733631 32.100265 -45.773007 -13.884788 0.581056 -0.937715 34.403761 49.251073 35.669822 34.131500 -7.125000 0.000000 0.000000 31.591400 77.058700 24.153000 -1.469231 -4.124529 -1.387770 72.666154 43.749955 40.748886 -55.634409 58.563128 -30.630474 0.955395 -0.298265 10.678124 -47.562145 35.687252 -33.065600 7.125000 0.000000 0.000000 -7.989500 16.341500 -9.995800 
20.975954 18.068780 5.500944 165.343928 -87.875478 -150.374548 0.976511 0.959430 -0.438757 -24.275022 2.901062 -18.919230 0.955183 4.400107 12.460819 0.169503 -2.514292 -4.979627 0.223000 -3.039900 -8.390000 -0.466068 -0.526158 -0.179414 14.473989 8.034557 -28.155202 -3.184913 -8.346729 25.057357 0.598905 -6.102292 -4.645845 -0.798400 5.703200 -15.925500 1.554268 0.881240 10.555729 2.395902 1.235815 2.959225 1.808140 0.390217 -0.186835 -10.782598 -2.192439 -20.444242 1.730951 -0.343173 23.283648 2.664000 -1.630600 14.321000 -0.693481 3.698521 -1.431823 -78.358020 -55.905453 58.075710 32.824718 -46.306842 -14.427885 0.569247 -0.940605 35.375338 49.213770 35.581999 34.032500 -7.125000 0.000000 0.000000 31.391900 76.937700 23.919700 -1.452394 -4.193613 -1.433923 72.614639 43.573551 41.383436 -55.830435 58.615725 -30.779910 0.945002 -0.342960 12.315193 -47.885214 36.337157 -33.785900 7.125000 0.000000 0.000000 -7.929900 17.211400 -9.999900 
20.974592 18.072572 5.489081 166.183143 -87.748537 -151.137602 0.986277 0.957770 -0.438348 -24.201062 2.713753 -19.027386 0.966886 4.470524 12.658507 0.168214 -2.268486 -5.150651 0.118900 -2.223200 -6.122800 -0.459935 -0.533662 -0.172437 14.484777 8.178322 -28.208014 -3.178658 -8.328262 25.001821 0.624318 -6.266098 -4.506791 -0.770500 5.604800 -15.641900 1.528622 0.880129 10.586848 2.521377 1.223399 3.033674 2.005432 0.382264 -0.078307 -10.803997 -2.040366 -20.543012 1.606552 -0.099118 23.353309 2.664800 -1.557300 14.341800 -0.702803 3.732704 -1.327565 -77.435470 -55.614720 57.296276 33.573151 -46.819672 -14.975015 0.560766 -0.939299 36.334648 49.212428 35.619991 34.042600 -7.125000 0.000000 0.000000 31.403100 76.957000 23.940500 -1.435409 -4.252438 -1.460123 72.451108 43.655555 42.015409 -55.704746 58.574439 -30.705985 0.945771 -0.357074 13.963105 -48.059087 35.767701 -33.575700 7.125000 0.000000 0.000000 -8.222900 16.672100 -10.324500 
20.974009 18.079087 5.477023 170.391444 -87.602272 -155.241984 1.027886 0.951680 -0.452176 -24.092648 2.771290 -19.188629 0.970270 4.494257 12.734794 0.165636 -2.092081 -5.239593 0.104700 -2.086100 -5.743500 -0.415039 -0.548855 -0.147114 14.494539 8.461024 -28.360499 -3.181123 -8.330271 25.009726 0.609307 -6.150986 -4.535410 -0.678600 5.267100 -14.672000 1.666335 0.894610 10.722700 2.611820 1.255366 3.033177 2.073945 0.401011 -0.120787 -10.718002 -1.900365 -20.632366 1.567944 0.071818 23.516421 2.666200 -1.492900 14.402200 -0.709236 3.771526 -1.211093 -76.344080 -55.290911 56.714795 34.451909 -47.395144 -15.623445 0.562779 -0.927220 36.943256 49.166014 35.951013 34.185700 -7.125000 0.000000 0.000000 31.518700 77.266300 24.225000 -1.420647 -4.304694 -1.497358 72.361823 43.563295 42.511188 -55.939473 58.645457 -30.927802 0.945794 -0.386611 15.731290 -47.341017 35.570932 -32.801100 7.125000 0.000000 0.000000 -7.929600 16.105400 -9.897500 
20.971772 18.078406 5.461854 173.311057 -87.439105 -158.132180 1.055825 0.942109 -0.465762 -23.998630 2.962964 -19.208046 0.963850 4.463000 12.658894 0.164130 -2.062588 -5.234033 0.134900 -2.367000 -6.520900 -0.378743 -0.561282 -0.126106 14.553696 8.551732 -28.478521 -3.196411 -8.365442 25.117908 0.562971 -5.831629 -4.703754 -0.642000 5.125900 -14.268000 1.756730 0.878537 10.954089 2.667033 1.247716 3.004595 2.120600 0.403847 -0.243037 -10.547578 -1.707179 -20.608114 1.369207 0.291829 23.590822 2.598600 -1.418500 14.397600 -0.714816 3.801434 -1.072505 -74.988878 -54.948717 56.117921 35.395708 -47.986264 -16.326280 0.572175 -0.911416 37.463546 48.838619 36.504489 34.187900 -7.125000 0.000000 0.000000 30.924500 77.721700 24.031000 -1.405082 -4.366929 -1.556290 72.506767 43.485806 43.202916 -56.249680 58.738606 -31.210301 0.941960 -0.418794 17.440382 -46.728321 35.572588 -32.258100 7.125000 0.000000 0.000000 -7.620000 15.813400 -9.478700 
20.968661 18.069169 5.448143 170.600538 -87.206575 -155.438653 1.033978 0.949723 -0.459924 -24.094254 3.009627 -19.078568 0.950056 4.410295 12.501216 0.163019 -1.998815 -5.254180 0.124600 -2.275700 -6.268200 -0.387659 -0.551748 -0.130514 14.462765 8.554178 -28.508857 -3.221370 -8.419172 25.306299 0.542254 -5.697796 -4.857789 -0.708400 5.379200 -14.993300 1.626489 0.921762 11.182998 2.620566 1.292496 3.013640 2.135005 0.432547 -0.323508 -10.231615 -1.507629 -20.588110 1.122010 0.474505 23.686865 2.480000 -1.349200 14.407000 -0.717390 3.821877 -0.973989 -73.945056 -54.728282 55.663565 36.098198 -48.410245 -16.848574 0.577049 -0.899347 38.154046 48.655066 37.029812 34.309000 -7.125000 0.000000 0.000000 30.741100 78.194500 24.169700 -1.391502 -4.426704 -1.585643 72.424321 43.713629 43.652296 -56.279362 58.758876 -31.265233 0.943762 -0.424177 18.637248 -46.773000 34.881202 -31.847000 7.125000 0.000000 0.000000 -7.878100 15.071700 -9.734000 
20.970508 18.064696 5.445323 166.941306 -87.033902 -151.657472 0.999871 0.960341 -0.452902 -24.294483 2.879488 -19.050754 0.931998 4.339207 12.282382 0.155452 -1.827272 -5.184294 0.128300 -2.309300 -6.361200 -0.397437 -0.552203 -0.125945 14.290985 8.392634 -28.877150 -3.253077 -8.476069 25.529311 0.508938 -5.465294 -4.892652 -0.733900 5.473100 -15.263100 1.630376 0.963639 11.332472 2.502784 1.346995 2.989421 1.963439 0.466822 -0.398761 -9.941766 -1.420603 -20.656883 1.214435 0.474403 23.879560 2.465000 -1.309500 14.488600 -0.718933 3.865761 -0.895525 -73.059955 -54.657157 55.398577 36.619395 -48.713751 -17.223114 0.583328 -0.874971 38.862461 49.145972 37.846085 35.243900 -7.125000 0.000000 0.000000 33.164800 79.156300 26.755000 -1.384329 -4.463739 -1.586520 72.057578 43.955804 43.978387 -56.373668 58.797798 -31.373890 0.949737 -0.409678 19.276101 -47.064158 33.653199 -31.278500 7.125000 0.000000 0.000000 -8.431500 13.843200 -10.301000 
20.971286 18.066543 5.444156 158.997506 -86.767549 -143.590794 0.912450 0.966550 -0.439962 -24.774130 2.783499 -19.095192 0.920987 4.296532 12.135470 0.153040 -1.794503 -5.120292 0.146800 -2.469100 -6.803900 -0.439370 -0.561569 -0.119543 13.882965 7.697639 -29.558600 -3.287023 -8.524060 25.746281 0.378340 -4.524524 -4.696166 -0.624300 5.056300 -14.069100 1.353871 0.929643 11.412228 2.426208 1.273532 2.999688 1.993001 0.426093 -0.388277 -10.188862 -1.501740 -20.908260 1.656847 0.413093 24.184580 2.673400 -1.314200 14.667500 -0.726744 3.944022 -0.810686 -72.050414 -54.590647 54.870303 37.239737 -49.071941 -17.667172 0.592783 -0.844819 39.334015 49.776197 38.637389 36.299600 -7.125000 0.000000 0.000000 36.494600 80.099600 30.184300 -1.377509 -4.481781 -1.576885 71.647615 44.328407 44.402572 -56.489968 58.857619 -31.512820 0.958582 -0.418543 20.210436 -46.683492 33.077851 -30.557700 7.125000 0.000000 0.000000 -8.423200 13.014500 -10.200700 
